<svg id="Layer_1" data-name="Layer 1" xmlns="http://www.w3.org/2000/svg" viewBox="0 0 394 85"><defs><style>.cls-1{fill:#fff;}</style></defs><title>checkit-logo-horizontal-standard-rgb-white</title><path class="cls-1" d="M134.59,29.6a14.3,14.3,0,0,1,12,6.54l.32.5,7-4.57-.33-.49a22.73,22.73,0,1,0,0,24.76l.33-.5-7-4.57-.32.5a14.35,14.35,0,1,1-12-22.17Z"/><path class="cls-1" d="M201,35.63a24.81,24.81,0,0,0-1.31-4.53,15.34,15.34,0,0,0-3-4.73,16.33,16.33,0,0,0-5.21-3.65,19.46,19.46,0,0,0-8-1.46,17.67,17.67,0,0,0-5.72.84A20.37,20.37,0,0,0,173.71,24a15.61,15.61,0,0,0-2.31,1.69V8.92l-8.56-5.56V65.2h8.56V39.46a18.73,18.73,0,0,1,.5-2.73,9.4,9.4,0,0,1,1.62-3.35,9.67,9.67,0,0,1,3.55-2.81,14.27,14.27,0,0,1,6.33-1.18,9.48,9.48,0,0,1,5.12,1.19,8.33,8.33,0,0,1,2.85,2.88A10.27,10.27,0,0,1,192.63,37a22.79,22.79,0,0,1,.29,3.25V65.2h8.47V38.73a12,12,0,0,0-.09-1.4C201.24,36.84,201.16,36.27,201,35.63Z"/><path class="cls-1" d="M280.35,29.6a14.29,14.29,0,0,1,12,6.54l.33.5,7-4.57-.32-.49a22.73,22.73,0,1,0,0,24.76l.32-.5-7-4.57-.33.5a14.35,14.35,0,1,1-12-22.17Z"/><polygon class="cls-1" points="342.12 25.14 334.89 20.44 317.06 38.97 317.06 8.86 308.59 3.36 308.59 65.2 317.06 65.2 317.06 51.3 321.57 46.56 337.09 65.2 348.14 65.2 327.54 40.38 342.12 25.14"/><rect class="cls-1" x="353.07" y="22.89" width="8.47" height="42.31"/><path class="cls-1" d="M357.35,6.43A5.29,5.29,0,0,0,353.55,8a5.07,5.07,0,0,0-1.6,3.77,5.21,5.21,0,0,0,1.59,3.8,5.2,5.2,0,0,0,3.81,1.59,5.09,5.09,0,0,0,3.76-1.59,5.28,5.28,0,0,0,1.54-3.8A5.12,5.12,0,0,0,361.1,8,5.09,5.09,0,0,0,357.35,6.43Z"/><path class="cls-1" d="M390.43,57.87l-.53.17a7.28,7.28,0,0,1-1.74.36,10.65,10.65,0,0,1-1.58,0,3,3,0,0,1-1.39-.5c-1.54-1.07-2.32-3.79-2.32-8.08V30.66h8.57V22.88h-8.57V8.75l-8.3-5.39V22.88h-5.23v7.78h5.23V49.78c0,7.26,2,12.3,6,15a10.56,10.56,0,0,0,4.14,1.73,16.86,16.86,0,0,0,2.83.25c.34,0,.68,0,1,0a14,14,0,0,0,2.91-.5l1.38-.43.6-.19Z"/><path class="cls-1" d="M251.33,38.78a22.63,22.63,0,0,0-2.73-6.91A22.87,22.87,0,0,0,244,26.33a20.84,20.84,0,0,0-6.08-3.66,19.84,19.84,0,0,0-14.23,0,20.59,20.59,0,0,0-6.08,3.66A22.72,22.72,0,0,0,213,31.87a22.46,22.46,0,0,0-2.73,6.89,22.29,22.29,0,0,0-.61,5.28c0,.36,0,.72,0,1.09s.05.61.05.93a23.18,23.18,0,0,0,6.77,14.73A21,21,0,0,0,223,65.15a19.38,19.38,0,0,0,7.81,1.59,21.49,21.49,0,0,0,10.93-2.86,22.74,22.74,0,0,0,7.89-7.58l-7-4.52a14.39,14.39,0,0,1-5,4.86,13.34,13.34,0,0,1-6.86,1.8,11,11,0,0,1-4.59-1,13.68,13.68,0,0,1-3.86-2.63,14,14,0,0,1-2.79-4,15.61,15.61,0,0,1-1.3-4.07h33.45l.06-.21.09-.48a5.09,5.09,0,0,0,.1-1.06V44A21.93,21.93,0,0,0,251.33,38.78ZM223.5,32.17a11.14,11.14,0,0,1,7.28-2.53,11.49,11.49,0,0,1,7.39,2.61,13.64,13.64,0,0,1,4.69,7.18H218.7A13.86,13.86,0,0,1,223.5,32.17Z"/><path class="cls-1" d="M62.31,55.12a23.5,23.5,0,1,1,0-25.24l16-10.2a42.5,42.5,0,1,0,0,45.64Z"/><path class="cls-1" d="M81,42.5a38.25,38.25,0,0,1-3.63,16.28l.55.35L80.77,61a42.35,42.35,0,0,0,0-36.9l-3.41,2.17A38.11,38.11,0,0,1,81,42.5Z"/><polygon class="cls-1" points="80.77 60.95 80.77 60.95 77.92 59.13 80.77 60.95"/><path class="cls-1" d="M64.55,34.39a23.42,23.42,0,0,1-2.24,20.73l3.37,2.15A27.35,27.35,0,0,0,68,32.2Z"/><path class="cls-1" d="M71.88,52.32l3.47,2.21A34.8,34.8,0,0,0,72,23.71l-3.37,2.14a30.78,30.78,0,0,1,3.25,26.47Z"/></svg>